<svg xmlns="http://www.w3.org/2000/svg" width="168" height="59" viewBox="0 0 168 59">
    <g fill="#FFF" fill-rule="evenodd">
        <path d="M74.496 25.835c-1.565 3.073-3.247 6.726-5.16 11.481-.232.58-.522.638-.928.232-.812-.87-1.392-2.61-.522-5.74 1.45-5.277 6.9-16.294 12.003-24.296-1.972-.174-3.015-1.044-3.711-2.32-.29-.58-.116-.87.638-.985 4.87-.58 9.22-2.957 13.104-3.131 2.957-.116 5.509.754 6.9 4.697 1.218 3.479.406 7.016-1.797 9.973-3.131 4.175-9.394 7.828-15.83 9.335 2.203 2.726 4.29 5.509 5.509 7.944.811 1.566 1.043 3.537.29 4.697-.29.464-.58.638-.928.116-3.827-5.219-6.842-8.988-9.568-12.003zm8.93-18.67c0 1.623-.638 3.652-2.203 6.551-1.566 2.784-3.016 5.219-4.581 8.06C89.456 18.935 96.009 10.47 94.327 6.352c-1.276-3.247-7.074-.232-10.901.812zm25.455 11.132c.754-1.391 1.45-2.61 2.088-3.537.521-.754.985-.87 1.391-.348.87 1.044 1.334 3.537-.058 6.437-1.275 2.609-4.175 6.958-5.566 10.03-1.45 3.248-1.508 5.741.464 5.625 2.377-.116 5.566-4.059 7.596-8.06.29-.521.695-.58.927-.057.232.521.232 1.971-.521 3.595-1.508 3.189-5.161 6.378-8.35 6.204-3.131-.174-4.755-2.03-4.755-4.755-1.856 2.378-4.465 4.523-7.248 4.523-5.393 0-6.494-7.364-1.682-14.38 4.697-6.842 9.278-9.452 12.177-9.452 2.493 0 3.653 1.914 3.537 4.175zm-5.044 8.988c3.653-6.378 4.174-9.974 2.493-10.147-1.856-.174-6.089 3.595-9.278 8.755-3.073 4.987-3.827 10.09-1.565 10.148 2.377.057 5.392-3.654 8.35-8.756zm32.239 4.233c-2.261 3.595-6.32 5.798-11.133 7.77-3.247 7.77-7.364 17.105-12.177 18.96-1.102.406-2.203.406-3.305-1.217-1.16-1.74-2.32-3.77-1.16-7.19 1.74-5.219 6.669-8.698 12.409-10.96.58-1.333 1.16-2.783 1.798-4.174-1.798 1.855-4.001 3.363-6.32 3.189-4.176-.348-4.292-4.58-2.958-8.408 1.276-3.71 4.117-9.451 7.886-14.67.464-.638 1.044-.58 1.45 0 1.391 1.856 1.043 4.291-1.102 7.712-2.088 3.363-3.363 5.74-4.465 8.466-1.16 2.841-1.044 4.87.29 4.987 2.261.173 5.16-3.538 8.118-8.582 2.493-4.291 4.986-9.51 7.016-12.467.522-.754.928-.87 1.45-.406.811 1.044 1.275 3.537-.232 6.494-1.74 3.364-5.277 10.322-7.712 15.946 4.522-2.435 7.944-5.74 10.263-8.93.29-.405.812-.463.928.117.116.521-.058 1.855-1.044 3.363zm-16.352 9.8c-7.538 4.348-10.147 12.292-9.103 13.741.754 1.102 5.508-5.218 9.103-13.742zm21.86-14.845c2.204.696 3.074 2.9 3.016 6.726 0 .638-.058 1.276-.116 1.972 2.203-1.45 4.523-4.35 6.03-7.364.348-.696.928-.754 1.218.058.29.87-.058 2.145-.58 3.479-.58 1.391-3.48 4.812-6.958 6.03-.928 5.857-3.48 12.293-6.263 15.772-1.971 2.435-3.42 2.667-5.16 1.16-1.45-1.218-3.19-3.48-2.551-8.408 1.623-12.93 14.96-35.139 21.396-44.764.464-.696 1.218-.638 1.45.058.695 1.971.521 4.465-1.972 8.697-2.377 3.943-6.378 10.496-9.51 16.584zm-.29 9.625c.29-1.391.464-2.84.522-4.174.058-2.146-.521-3.943-.927-3.77-.58.233-1.102 3.306-1.16 4.64-.058 1.855.464 3.073 1.566 3.304zm-3.884-.637c-3.248 7.712-5.335 14.902-4.001 16.583 1.275 1.682 5.624-6.32 7.538-14.264-1.682-.174-2.842-.928-3.537-2.32zm19.482-20.875c-1.971 0-3.305-.87-3.769-1.507-.58-.812-.232-1.218.638-1.16 1.624.058 3.247-.058 4.813-.232 1.798-3.19 3.421-5.914 4.407-7.19.522-.754 1.102-.696 1.391 0 .638 1.623.638 3.537-.753 6.552 2.261-.058 3.13.986 3.595 1.74.406.695.174 1.101-.696 1.101-1.276-.174-3.073 0-4.523.232-2.261 3.885-5.566 9.51-7.77 14.38-1.913 4.233-1.276 7.828 1.16 7.944 2.61.116 5.914-4 8.06-8.35.348-.695.985-.811 1.217 0 .29.928 0 1.972-.58 3.306-.753 1.681-4.58 6.784-9.219 6.61-3.827-.116-6.9-4.407-4.117-11.075 1.218-2.9 3.653-7.77 6.146-12.35z"/>
        <g fill-rule="nonzero" opacity=".9">
            <path d="M7.226 34.538l4.817-.088 2.212-.05a15.73 15.73 0 0 1 1.996.03c2.213.199 4.336.977 6.154 2.256.304.18.697.092.894-.201a.634.634 0 0 0-.068-.866 13.355 13.355 0 0 0-6.769-3.027 16.855 16.855 0 0 0-2.212-.148l-2.232-.05-3.662-.058c.133-8.037.202-17.637.217-27.31h6.847c.349 0 .698.044 1.042.093a11.797 11.797 0 0 1 7.132 3.736l.104.098c.033.026.067.05.103.074-.836 4.778-.816 17.386.064 21.652 0 .08.344.138.722.133.379-.005.615-.064.63-.133.88-4.266.899-16.87.063-21.628.082-.056.156-.122.222-.196a11.866 11.866 0 0 1 7.79-3.967c.355-.04.689-.044 1.062-.06h1.136l2.212-.034 3.15-.059c.099 5.53.217 9.433.36 12.407a.639.639 0 0 0 .707.565.624.624 0 0 0 .61-.565c.098-2.074.187-4.61.265-7.83.84.222 1.7.368 2.566.437l.693.06v.771c0 2.63.236 5.26.693 6.567.228.076.47.103.708.079a1.4 1.4 0 0 0 .61-.079c.457-1.307.693-3.932.693-6.567V9.105a1.71 1.71 0 0 0 0-.186 1.932 1.932 0 0 0-1.745-1.647h-.246l-.462.03-.89.073c-.854.07-1.701.212-2.531.428.03-1.273.054-2.645.078-4.13a1.018 1.018 0 0 0-.983-1.036h-.039l-4.218-.089-2.211-.034h-1.136c-.393 0-.83 0-1.248.034a14.137 14.137 0 0 0-8.549 3.618 14.255 14.255 0 0 0-7.751-3.701 8.64 8.64 0 0 0-1.283-.114H7.22a1.352 1.352 0 0 0-1.322 1.313v4.193a87.156 87.156 0 0 0-1.873-.128l-1.313-.074H2.178a1.588 1.588 0 0 0-.212.035 1.568 1.568 0 0 0-1.027.757 1.607 1.607 0 0 0-.197.786 329.96 329.96 0 0 0-.216 6.538 649.087 649.087 0 0 0-.177 15.64V38.432A1.966 1.966 0 0 0 2.02 40.29h.432c2.636-.03 5.187-.069 7.566-.128l3.44-.093c.541 0 1.107-.044 1.534-.04.444.009.887.056 1.323.143a8.297 8.297 0 0 1 4 1.996c.102.06.225.07.335.03a.983.983 0 0 0 .418-.28c.103-.11.186-.236.246-.374a.26.26 0 0 0 0-.29 9.05 9.05 0 0 0-6.164-3.313c-.61-.054-1.116-.054-1.667-.079l-3.44-.093a493.962 493.962 0 0 0-7.025-.118v-2.168-4.07c0-5.442-.059-10.883-.177-15.641a316.795 316.795 0 0 0-.206-6.331h.03l1.312-.074c.698-.04 1.338-.084 1.922-.133.024 8.656.098 17.081.22 24.184v.04a1.096 1.096 0 0 0 1.107 1.081z"/>
            <path d="M48.781 21.571a1.322 1.322 0 0 0-1.288-1.258c-1.766-.06-3.533.09-5.264.447-1.703.38-3.354.966-4.915 1.745a20.424 20.424 0 0 0-9.561 10.264c-.236.668-.492 1.307-.683 1.966a30.645 30.645 0 0 0-.492 1.868c-.383 1.917-.732 3.637-1.017 5.072a24.445 24.445 0 0 0-3.107 3.977c-.03.05.172.315.442.575.27.26.462.403.492.379 2.88-1.539 9.516-8.185 11.07-11.036.024-.049-.172-.304-.433-.565-.26-.26-.452-.388-.492-.364-1.366.743-3.607 2.66-5.74 4.763.222-.737.451-1.517.687-2.34.158-.594.369-1.11.55-1.695.183-.585.492-1.126.714-1.716a19.618 19.618 0 0 1 2.089-3.362 18.733 18.733 0 0 1 6.65-5.436 19.632 19.632 0 0 1 4.306-1.475 19.244 19.244 0 0 1 3.308-.383 18.536 18.536 0 0 1-1.332 6.449l-5.043 2.398h-.04a1.219 1.219 0 0 0 .04 2.222l1.853.787a19.495 19.495 0 0 1-3.932 3.504 21.024 21.024 0 0 1-4.749 2.335c-.206.074-.294.438-.186.802.108.363.329.545.54.491a18.315 18.315 0 0 0 5.373-2.01 19.922 19.922 0 0 0 5.741-4.916 1.14 1.14 0 0 0-.403-1.745h-.044l-.718-.339 3.127-1.367c.285-.124.514-.35.644-.634v-.03a20.458 20.458 0 0 0 1.804-9.339l.01-.034z"/>
        </g>
    </g>
</svg>
